%TF.GenerationSoftware,KiCad,Pcbnew,8.0.8*%
%TF.CreationDate,2025-10-12T21:50:37+03:00*%
%TF.ProjectId,trackking solar,74726163-6b6b-4696-9e67-20736f6c6172,rev?*%
%TF.SameCoordinates,Original*%
%TF.FileFunction,Soldermask,Bot*%
%TF.FilePolarity,Negative*%
%FSLAX46Y46*%
G04 Gerber Fmt 4.6, Leading zero omitted, Abs format (unit mm)*
G04 Created by KiCad (PCBNEW 8.0.8) date 2025-10-12 21:50:37*
%MOMM*%
%LPD*%
G01*
G04 APERTURE LIST*
%ADD10R,1.600000X1.600000*%
%ADD11O,1.600000X1.600000*%
%ADD12C,1.500000*%
%ADD13C,1.600000*%
G04 APERTURE END LIST*
D10*
%TO.C,A1*%
X133940000Y-52740000D03*
D11*
X136480000Y-52740000D03*
X139020000Y-52740000D03*
X141560000Y-52740000D03*
X144100000Y-52740000D03*
X146640000Y-52740000D03*
X149180000Y-52740000D03*
X151720000Y-52740000D03*
X156800000Y-52740000D03*
X159340000Y-52740000D03*
X161880000Y-52740000D03*
X164420000Y-52740000D03*
X166960000Y-52740000D03*
X169500000Y-52740000D03*
X169500000Y-101000000D03*
X166960000Y-101000000D03*
X164420000Y-101000000D03*
X161880000Y-101000000D03*
X159340000Y-101000000D03*
X156800000Y-101000000D03*
X154260000Y-101000000D03*
X151720000Y-101000000D03*
X147660000Y-101000000D03*
X145120000Y-101000000D03*
X142580000Y-101000000D03*
X140040000Y-101000000D03*
X137500000Y-101000000D03*
X134960000Y-101000000D03*
X132420000Y-101000000D03*
X129880000Y-101000000D03*
X127340000Y-101000000D03*
X124800000Y-101000000D03*
%TD*%
D12*
%TO.C,R4*%
X183300000Y-122000000D03*
X186700000Y-122000000D03*
%TD*%
%TO.C,R1*%
X140000000Y-123000000D03*
X143400000Y-123000000D03*
%TD*%
D13*
%TO.C,R6*%
X145500000Y-41620000D03*
D11*
X145500000Y-26380000D03*
%TD*%
D13*
%TO.C,R5*%
X133500000Y-43240000D03*
D11*
X133500000Y-28000000D03*
%TD*%
D13*
%TO.C,R7*%
X159500000Y-42740000D03*
D11*
X159500000Y-27500000D03*
%TD*%
D12*
%TO.C,R3*%
X171300000Y-122000000D03*
X174700000Y-122000000D03*
%TD*%
D13*
%TO.C,R8*%
X169000000Y-44240000D03*
D11*
X169000000Y-29000000D03*
%TD*%
D12*
%TO.C,R2*%
X156300000Y-122000000D03*
X159700000Y-122000000D03*
%TD*%
M02*
