M48
; DRILL file {KiCad 8.0.8} date 2025-10-12T21:50:46+0300
; FORMAT={-:-/ absolute / inch / decimal}
; #@! TF.CreationDate,2025-10-12T21:50:46+03:00
; #@! TF.GenerationSoftware,Kicad,Pcbnew,8.0.8
; #@! TF.FileFunction,Plated,1,2,PTH
FMAT,2
INCH
; #@! TA.AperFunction,Plated,PTH,ComponentDrill
T1C0.0315
; #@! TA.AperFunction,Plated,PTH,ComponentDrill
T2C0.0394
%
G90
G05
T1
X5.2559Y-1.1024
X5.2559Y-1.7024
X5.5118Y-4.8425
X5.6457Y-4.8425
X5.7283Y-1.0386
X5.7283Y-1.6386
X6.1535Y-4.8031
X6.2795Y-1.0827
X6.2795Y-1.6827
X6.2874Y-4.8031
X6.6535Y-1.1417
X6.6535Y-1.7417
X6.7441Y-4.8031
X6.878Y-4.8031
X7.2165Y-4.8031
X7.3504Y-4.8031
T2
X4.9134Y-3.9764
X5.0134Y-3.9764
X5.1134Y-3.9764
X5.2134Y-3.9764
X5.2732Y-2.0764
X5.3134Y-3.9764
X5.3732Y-2.0764
X5.4134Y-3.9764
X5.4732Y-2.0764
X5.5134Y-3.9764
X5.5732Y-2.0764
X5.6134Y-3.9764
X5.6732Y-2.0764
X5.7134Y-3.9764
X5.7732Y-2.0764
X5.8134Y-3.9764
X5.8732Y-2.0764
X5.9732Y-2.0764
X5.9732Y-3.9764
X6.0732Y-3.9764
X6.1732Y-2.0764
X6.1732Y-3.9764
X6.2732Y-2.0764
X6.2732Y-3.9764
X6.3732Y-2.0764
X6.3732Y-3.9764
X6.4732Y-2.0764
X6.4732Y-3.9764
X6.5732Y-2.0764
X6.5732Y-3.9764
X6.6732Y-2.0764
X6.6732Y-3.9764
M30
