%TF.GenerationSoftware,KiCad,Pcbnew,8.0.8*%
%TF.CreationDate,2025-10-12T21:50:37+03:00*%
%TF.ProjectId,trackking solar,74726163-6b6b-4696-9e67-20736f6c6172,rev?*%
%TF.SameCoordinates,Original*%
%TF.FileFunction,Legend,Top*%
%TF.FilePolarity,Positive*%
%FSLAX46Y46*%
G04 Gerber Fmt 4.6, Leading zero omitted, Abs format (unit mm)*
G04 Created by KiCad (PCBNEW 8.0.8) date 2025-10-12 21:50:37*
%MOMM*%
%LPD*%
G01*
G04 APERTURE LIST*
%ADD10C,0.200000*%
%ADD11C,0.150000*%
%ADD12C,0.120000*%
G04 APERTURE END LIST*
D10*
X161322054Y-135319600D02*
X161458958Y-135367219D01*
X161458958Y-135367219D02*
X161697054Y-135367219D01*
X161697054Y-135367219D02*
X161798244Y-135319600D01*
X161798244Y-135319600D02*
X161851816Y-135271980D01*
X161851816Y-135271980D02*
X161911339Y-135176742D01*
X161911339Y-135176742D02*
X161923244Y-135081504D01*
X161923244Y-135081504D02*
X161887530Y-134986266D01*
X161887530Y-134986266D02*
X161845863Y-134938647D01*
X161845863Y-134938647D02*
X161756578Y-134891028D01*
X161756578Y-134891028D02*
X161572054Y-134843409D01*
X161572054Y-134843409D02*
X161482768Y-134795790D01*
X161482768Y-134795790D02*
X161441101Y-134748171D01*
X161441101Y-134748171D02*
X161405387Y-134652933D01*
X161405387Y-134652933D02*
X161417292Y-134557695D01*
X161417292Y-134557695D02*
X161476816Y-134462457D01*
X161476816Y-134462457D02*
X161530387Y-134414838D01*
X161530387Y-134414838D02*
X161631578Y-134367219D01*
X161631578Y-134367219D02*
X161869673Y-134367219D01*
X161869673Y-134367219D02*
X162006578Y-134414838D01*
X162631578Y-134367219D02*
X162822054Y-134367219D01*
X162822054Y-134367219D02*
X162911339Y-134414838D01*
X162911339Y-134414838D02*
X162994673Y-134510076D01*
X162994673Y-134510076D02*
X163018482Y-134700552D01*
X163018482Y-134700552D02*
X162976816Y-135033885D01*
X162976816Y-135033885D02*
X162905387Y-135224361D01*
X162905387Y-135224361D02*
X162798244Y-135319600D01*
X162798244Y-135319600D02*
X162697054Y-135367219D01*
X162697054Y-135367219D02*
X162506578Y-135367219D01*
X162506578Y-135367219D02*
X162417292Y-135319600D01*
X162417292Y-135319600D02*
X162333959Y-135224361D01*
X162333959Y-135224361D02*
X162310149Y-135033885D01*
X162310149Y-135033885D02*
X162351816Y-134700552D01*
X162351816Y-134700552D02*
X162423244Y-134510076D01*
X162423244Y-134510076D02*
X162530387Y-134414838D01*
X162530387Y-134414838D02*
X162631578Y-134367219D01*
X163839911Y-135367219D02*
X163363720Y-135367219D01*
X163363720Y-135367219D02*
X163488720Y-134367219D01*
X164161340Y-135081504D02*
X164637530Y-135081504D01*
X164030387Y-135367219D02*
X164488721Y-134367219D01*
X164488721Y-134367219D02*
X164697054Y-135367219D01*
X165601816Y-135367219D02*
X165328006Y-134891028D01*
X165030387Y-135367219D02*
X165155387Y-134367219D01*
X165155387Y-134367219D02*
X165536340Y-134367219D01*
X165536340Y-134367219D02*
X165625625Y-134414838D01*
X165625625Y-134414838D02*
X165667292Y-134462457D01*
X165667292Y-134462457D02*
X165703006Y-134557695D01*
X165703006Y-134557695D02*
X165685149Y-134700552D01*
X165685149Y-134700552D02*
X165625625Y-134795790D01*
X165625625Y-134795790D02*
X165572054Y-134843409D01*
X165572054Y-134843409D02*
X165470864Y-134891028D01*
X165470864Y-134891028D02*
X165089911Y-134891028D01*
X166774435Y-134367219D02*
X167345864Y-134367219D01*
X166935150Y-135367219D02*
X167060150Y-134367219D01*
X168125626Y-135367219D02*
X167851816Y-134891028D01*
X167554197Y-135367219D02*
X167679197Y-134367219D01*
X167679197Y-134367219D02*
X168060150Y-134367219D01*
X168060150Y-134367219D02*
X168149435Y-134414838D01*
X168149435Y-134414838D02*
X168191102Y-134462457D01*
X168191102Y-134462457D02*
X168226816Y-134557695D01*
X168226816Y-134557695D02*
X168208959Y-134700552D01*
X168208959Y-134700552D02*
X168149435Y-134795790D01*
X168149435Y-134795790D02*
X168095864Y-134843409D01*
X168095864Y-134843409D02*
X167994674Y-134891028D01*
X167994674Y-134891028D02*
X167613721Y-134891028D01*
X168542293Y-135081504D02*
X169018483Y-135081504D01*
X168411340Y-135367219D02*
X168869674Y-134367219D01*
X168869674Y-134367219D02*
X169078007Y-135367219D01*
X169994674Y-135271980D02*
X169941102Y-135319600D01*
X169941102Y-135319600D02*
X169792293Y-135367219D01*
X169792293Y-135367219D02*
X169697055Y-135367219D01*
X169697055Y-135367219D02*
X169560150Y-135319600D01*
X169560150Y-135319600D02*
X169476817Y-135224361D01*
X169476817Y-135224361D02*
X169441102Y-135129123D01*
X169441102Y-135129123D02*
X169417293Y-134938647D01*
X169417293Y-134938647D02*
X169435150Y-134795790D01*
X169435150Y-134795790D02*
X169506578Y-134605314D01*
X169506578Y-134605314D02*
X169566102Y-134510076D01*
X169566102Y-134510076D02*
X169673245Y-134414838D01*
X169673245Y-134414838D02*
X169822055Y-134367219D01*
X169822055Y-134367219D02*
X169917293Y-134367219D01*
X169917293Y-134367219D02*
X170054198Y-134414838D01*
X170054198Y-134414838D02*
X170095864Y-134462457D01*
X170411340Y-135367219D02*
X170536340Y-134367219D01*
X170982769Y-135367219D02*
X170625626Y-134795790D01*
X171107769Y-134367219D02*
X170464912Y-134938647D01*
X171411340Y-135367219D02*
X171536340Y-134367219D01*
X171887530Y-135367219D02*
X172012530Y-134367219D01*
X172012530Y-134367219D02*
X172458959Y-135367219D01*
X172458959Y-135367219D02*
X172583959Y-134367219D01*
X173578007Y-134414838D02*
X173488721Y-134367219D01*
X173488721Y-134367219D02*
X173345864Y-134367219D01*
X173345864Y-134367219D02*
X173197054Y-134414838D01*
X173197054Y-134414838D02*
X173089911Y-134510076D01*
X173089911Y-134510076D02*
X173030387Y-134605314D01*
X173030387Y-134605314D02*
X172958959Y-134795790D01*
X172958959Y-134795790D02*
X172941102Y-134938647D01*
X172941102Y-134938647D02*
X172964911Y-135129123D01*
X172964911Y-135129123D02*
X173000626Y-135224361D01*
X173000626Y-135224361D02*
X173083959Y-135319600D01*
X173083959Y-135319600D02*
X173220864Y-135367219D01*
X173220864Y-135367219D02*
X173316102Y-135367219D01*
X173316102Y-135367219D02*
X173464911Y-135319600D01*
X173464911Y-135319600D02*
X173518483Y-135271980D01*
X173518483Y-135271980D02*
X173560149Y-134938647D01*
X173560149Y-134938647D02*
X173369673Y-134938647D01*
X174655388Y-135319600D02*
X174792292Y-135367219D01*
X174792292Y-135367219D02*
X175030388Y-135367219D01*
X175030388Y-135367219D02*
X175131578Y-135319600D01*
X175131578Y-135319600D02*
X175185150Y-135271980D01*
X175185150Y-135271980D02*
X175244673Y-135176742D01*
X175244673Y-135176742D02*
X175256578Y-135081504D01*
X175256578Y-135081504D02*
X175220864Y-134986266D01*
X175220864Y-134986266D02*
X175179197Y-134938647D01*
X175179197Y-134938647D02*
X175089912Y-134891028D01*
X175089912Y-134891028D02*
X174905388Y-134843409D01*
X174905388Y-134843409D02*
X174816102Y-134795790D01*
X174816102Y-134795790D02*
X174774435Y-134748171D01*
X174774435Y-134748171D02*
X174738721Y-134652933D01*
X174738721Y-134652933D02*
X174750626Y-134557695D01*
X174750626Y-134557695D02*
X174810150Y-134462457D01*
X174810150Y-134462457D02*
X174863721Y-134414838D01*
X174863721Y-134414838D02*
X174964912Y-134367219D01*
X174964912Y-134367219D02*
X175203007Y-134367219D01*
X175203007Y-134367219D02*
X175339912Y-134414838D01*
X175899435Y-134891028D02*
X175839912Y-135367219D01*
X175631578Y-134367219D02*
X175899435Y-134891028D01*
X175899435Y-134891028D02*
X176298245Y-134367219D01*
X176464912Y-135319600D02*
X176601816Y-135367219D01*
X176601816Y-135367219D02*
X176839912Y-135367219D01*
X176839912Y-135367219D02*
X176941102Y-135319600D01*
X176941102Y-135319600D02*
X176994674Y-135271980D01*
X176994674Y-135271980D02*
X177054197Y-135176742D01*
X177054197Y-135176742D02*
X177066102Y-135081504D01*
X177066102Y-135081504D02*
X177030388Y-134986266D01*
X177030388Y-134986266D02*
X176988721Y-134938647D01*
X176988721Y-134938647D02*
X176899436Y-134891028D01*
X176899436Y-134891028D02*
X176714912Y-134843409D01*
X176714912Y-134843409D02*
X176625626Y-134795790D01*
X176625626Y-134795790D02*
X176583959Y-134748171D01*
X176583959Y-134748171D02*
X176548245Y-134652933D01*
X176548245Y-134652933D02*
X176560150Y-134557695D01*
X176560150Y-134557695D02*
X176619674Y-134462457D01*
X176619674Y-134462457D02*
X176673245Y-134414838D01*
X176673245Y-134414838D02*
X176774436Y-134367219D01*
X176774436Y-134367219D02*
X177012531Y-134367219D01*
X177012531Y-134367219D02*
X177149436Y-134414838D01*
X177441102Y-134367219D02*
X178012531Y-134367219D01*
X177601817Y-135367219D02*
X177726817Y-134367219D01*
X178286341Y-134843409D02*
X178619674Y-134843409D01*
X178697055Y-135367219D02*
X178220864Y-135367219D01*
X178220864Y-135367219D02*
X178345864Y-134367219D01*
X178345864Y-134367219D02*
X178822055Y-134367219D01*
X179125626Y-135367219D02*
X179250626Y-134367219D01*
X179250626Y-134367219D02*
X179494674Y-135081504D01*
X179494674Y-135081504D02*
X179917293Y-134367219D01*
X179917293Y-134367219D02*
X179792293Y-135367219D01*
X181429198Y-134843409D02*
X181566103Y-134891028D01*
X181566103Y-134891028D02*
X181607769Y-134938647D01*
X181607769Y-134938647D02*
X181643484Y-135033885D01*
X181643484Y-135033885D02*
X181625626Y-135176742D01*
X181625626Y-135176742D02*
X181566103Y-135271980D01*
X181566103Y-135271980D02*
X181512531Y-135319600D01*
X181512531Y-135319600D02*
X181411341Y-135367219D01*
X181411341Y-135367219D02*
X181030388Y-135367219D01*
X181030388Y-135367219D02*
X181155388Y-134367219D01*
X181155388Y-134367219D02*
X181488722Y-134367219D01*
X181488722Y-134367219D02*
X181578007Y-134414838D01*
X181578007Y-134414838D02*
X181619674Y-134462457D01*
X181619674Y-134462457D02*
X181655388Y-134557695D01*
X181655388Y-134557695D02*
X181643484Y-134652933D01*
X181643484Y-134652933D02*
X181583960Y-134748171D01*
X181583960Y-134748171D02*
X181530388Y-134795790D01*
X181530388Y-134795790D02*
X181429198Y-134843409D01*
X181429198Y-134843409D02*
X181095865Y-134843409D01*
X182280388Y-134891028D02*
X182220865Y-135367219D01*
X182012531Y-134367219D02*
X182280388Y-134891028D01*
X182280388Y-134891028D02*
X182679198Y-134367219D01*
X183649436Y-135367219D02*
X183774436Y-134367219D01*
X183714913Y-134843409D02*
X184286341Y-134843409D01*
X184220865Y-135367219D02*
X184345865Y-134367219D01*
X184685151Y-135081504D02*
X185161341Y-135081504D01*
X184554198Y-135367219D02*
X185012532Y-134367219D01*
X185012532Y-134367219D02*
X185220865Y-135367219D01*
X185554198Y-135367219D02*
X185679198Y-134367219D01*
X185679198Y-134367219D02*
X185923246Y-135081504D01*
X185923246Y-135081504D02*
X186345865Y-134367219D01*
X186345865Y-134367219D02*
X186220865Y-135367219D01*
D11*
X134495714Y-49099104D02*
X134971904Y-49099104D01*
X134400476Y-49384819D02*
X134733809Y-48384819D01*
X134733809Y-48384819D02*
X135067142Y-49384819D01*
X135924285Y-49384819D02*
X135352857Y-49384819D01*
X135638571Y-49384819D02*
X135638571Y-48384819D01*
X135638571Y-48384819D02*
X135543333Y-48527676D01*
X135543333Y-48527676D02*
X135448095Y-48622914D01*
X135448095Y-48622914D02*
X135352857Y-48670533D01*
X184833333Y-119554819D02*
X184500000Y-119078628D01*
X184261905Y-119554819D02*
X184261905Y-118554819D01*
X184261905Y-118554819D02*
X184642857Y-118554819D01*
X184642857Y-118554819D02*
X184738095Y-118602438D01*
X184738095Y-118602438D02*
X184785714Y-118650057D01*
X184785714Y-118650057D02*
X184833333Y-118745295D01*
X184833333Y-118745295D02*
X184833333Y-118888152D01*
X184833333Y-118888152D02*
X184785714Y-118983390D01*
X184785714Y-118983390D02*
X184738095Y-119031009D01*
X184738095Y-119031009D02*
X184642857Y-119078628D01*
X184642857Y-119078628D02*
X184261905Y-119078628D01*
X185690476Y-118888152D02*
X185690476Y-119554819D01*
X185452381Y-118507200D02*
X185214286Y-119221485D01*
X185214286Y-119221485D02*
X185833333Y-119221485D01*
X122240476Y-115329819D02*
X122240476Y-114329819D01*
X122240476Y-114329819D02*
X122573809Y-115044104D01*
X122573809Y-115044104D02*
X122907142Y-114329819D01*
X122907142Y-114329819D02*
X122907142Y-115329819D01*
X123335714Y-114425057D02*
X123383333Y-114377438D01*
X123383333Y-114377438D02*
X123478571Y-114329819D01*
X123478571Y-114329819D02*
X123716666Y-114329819D01*
X123716666Y-114329819D02*
X123811904Y-114377438D01*
X123811904Y-114377438D02*
X123859523Y-114425057D01*
X123859523Y-114425057D02*
X123907142Y-114520295D01*
X123907142Y-114520295D02*
X123907142Y-114615533D01*
X123907142Y-114615533D02*
X123859523Y-114758390D01*
X123859523Y-114758390D02*
X123288095Y-115329819D01*
X123288095Y-115329819D02*
X123907142Y-115329819D01*
X141533333Y-120554819D02*
X141200000Y-120078628D01*
X140961905Y-120554819D02*
X140961905Y-119554819D01*
X140961905Y-119554819D02*
X141342857Y-119554819D01*
X141342857Y-119554819D02*
X141438095Y-119602438D01*
X141438095Y-119602438D02*
X141485714Y-119650057D01*
X141485714Y-119650057D02*
X141533333Y-119745295D01*
X141533333Y-119745295D02*
X141533333Y-119888152D01*
X141533333Y-119888152D02*
X141485714Y-119983390D01*
X141485714Y-119983390D02*
X141438095Y-120031009D01*
X141438095Y-120031009D02*
X141342857Y-120078628D01*
X141342857Y-120078628D02*
X140961905Y-120078628D01*
X142485714Y-120554819D02*
X141914286Y-120554819D01*
X142200000Y-120554819D02*
X142200000Y-119554819D01*
X142200000Y-119554819D02*
X142104762Y-119697676D01*
X142104762Y-119697676D02*
X142009524Y-119792914D01*
X142009524Y-119792914D02*
X141914286Y-119840533D01*
X100040476Y-115304819D02*
X100040476Y-114304819D01*
X100040476Y-114304819D02*
X100373809Y-115019104D01*
X100373809Y-115019104D02*
X100707142Y-114304819D01*
X100707142Y-114304819D02*
X100707142Y-115304819D01*
X101707142Y-115304819D02*
X101135714Y-115304819D01*
X101421428Y-115304819D02*
X101421428Y-114304819D01*
X101421428Y-114304819D02*
X101326190Y-114447676D01*
X101326190Y-114447676D02*
X101230952Y-114542914D01*
X101230952Y-114542914D02*
X101135714Y-114590533D01*
X143234819Y-34166666D02*
X142758628Y-34499999D01*
X143234819Y-34738094D02*
X142234819Y-34738094D01*
X142234819Y-34738094D02*
X142234819Y-34357142D01*
X142234819Y-34357142D02*
X142282438Y-34261904D01*
X142282438Y-34261904D02*
X142330057Y-34214285D01*
X142330057Y-34214285D02*
X142425295Y-34166666D01*
X142425295Y-34166666D02*
X142568152Y-34166666D01*
X142568152Y-34166666D02*
X142663390Y-34214285D01*
X142663390Y-34214285D02*
X142711009Y-34261904D01*
X142711009Y-34261904D02*
X142758628Y-34357142D01*
X142758628Y-34357142D02*
X142758628Y-34738094D01*
X142234819Y-33309523D02*
X142234819Y-33499999D01*
X142234819Y-33499999D02*
X142282438Y-33595237D01*
X142282438Y-33595237D02*
X142330057Y-33642856D01*
X142330057Y-33642856D02*
X142472914Y-33738094D01*
X142472914Y-33738094D02*
X142663390Y-33785713D01*
X142663390Y-33785713D02*
X143044342Y-33785713D01*
X143044342Y-33785713D02*
X143139580Y-33738094D01*
X143139580Y-33738094D02*
X143187200Y-33690475D01*
X143187200Y-33690475D02*
X143234819Y-33595237D01*
X143234819Y-33595237D02*
X143234819Y-33404761D01*
X143234819Y-33404761D02*
X143187200Y-33309523D01*
X143187200Y-33309523D02*
X143139580Y-33261904D01*
X143139580Y-33261904D02*
X143044342Y-33214285D01*
X143044342Y-33214285D02*
X142806247Y-33214285D01*
X142806247Y-33214285D02*
X142711009Y-33261904D01*
X142711009Y-33261904D02*
X142663390Y-33309523D01*
X142663390Y-33309523D02*
X142615771Y-33404761D01*
X142615771Y-33404761D02*
X142615771Y-33595237D01*
X142615771Y-33595237D02*
X142663390Y-33690475D01*
X142663390Y-33690475D02*
X142711009Y-33738094D01*
X142711009Y-33738094D02*
X142806247Y-33785713D01*
X131234819Y-35786666D02*
X130758628Y-36119999D01*
X131234819Y-36358094D02*
X130234819Y-36358094D01*
X130234819Y-36358094D02*
X130234819Y-35977142D01*
X130234819Y-35977142D02*
X130282438Y-35881904D01*
X130282438Y-35881904D02*
X130330057Y-35834285D01*
X130330057Y-35834285D02*
X130425295Y-35786666D01*
X130425295Y-35786666D02*
X130568152Y-35786666D01*
X130568152Y-35786666D02*
X130663390Y-35834285D01*
X130663390Y-35834285D02*
X130711009Y-35881904D01*
X130711009Y-35881904D02*
X130758628Y-35977142D01*
X130758628Y-35977142D02*
X130758628Y-36358094D01*
X130234819Y-34881904D02*
X130234819Y-35358094D01*
X130234819Y-35358094D02*
X130711009Y-35405713D01*
X130711009Y-35405713D02*
X130663390Y-35358094D01*
X130663390Y-35358094D02*
X130615771Y-35262856D01*
X130615771Y-35262856D02*
X130615771Y-35024761D01*
X130615771Y-35024761D02*
X130663390Y-34929523D01*
X130663390Y-34929523D02*
X130711009Y-34881904D01*
X130711009Y-34881904D02*
X130806247Y-34834285D01*
X130806247Y-34834285D02*
X131044342Y-34834285D01*
X131044342Y-34834285D02*
X131139580Y-34881904D01*
X131139580Y-34881904D02*
X131187200Y-34929523D01*
X131187200Y-34929523D02*
X131234819Y-35024761D01*
X131234819Y-35024761D02*
X131234819Y-35262856D01*
X131234819Y-35262856D02*
X131187200Y-35358094D01*
X131187200Y-35358094D02*
X131139580Y-35405713D01*
X157234819Y-35286666D02*
X156758628Y-35619999D01*
X157234819Y-35858094D02*
X156234819Y-35858094D01*
X156234819Y-35858094D02*
X156234819Y-35477142D01*
X156234819Y-35477142D02*
X156282438Y-35381904D01*
X156282438Y-35381904D02*
X156330057Y-35334285D01*
X156330057Y-35334285D02*
X156425295Y-35286666D01*
X156425295Y-35286666D02*
X156568152Y-35286666D01*
X156568152Y-35286666D02*
X156663390Y-35334285D01*
X156663390Y-35334285D02*
X156711009Y-35381904D01*
X156711009Y-35381904D02*
X156758628Y-35477142D01*
X156758628Y-35477142D02*
X156758628Y-35858094D01*
X156234819Y-34953332D02*
X156234819Y-34286666D01*
X156234819Y-34286666D02*
X157234819Y-34715237D01*
X172833333Y-119554819D02*
X172500000Y-119078628D01*
X172261905Y-119554819D02*
X172261905Y-118554819D01*
X172261905Y-118554819D02*
X172642857Y-118554819D01*
X172642857Y-118554819D02*
X172738095Y-118602438D01*
X172738095Y-118602438D02*
X172785714Y-118650057D01*
X172785714Y-118650057D02*
X172833333Y-118745295D01*
X172833333Y-118745295D02*
X172833333Y-118888152D01*
X172833333Y-118888152D02*
X172785714Y-118983390D01*
X172785714Y-118983390D02*
X172738095Y-119031009D01*
X172738095Y-119031009D02*
X172642857Y-119078628D01*
X172642857Y-119078628D02*
X172261905Y-119078628D01*
X173166667Y-118554819D02*
X173785714Y-118554819D01*
X173785714Y-118554819D02*
X173452381Y-118935771D01*
X173452381Y-118935771D02*
X173595238Y-118935771D01*
X173595238Y-118935771D02*
X173690476Y-118983390D01*
X173690476Y-118983390D02*
X173738095Y-119031009D01*
X173738095Y-119031009D02*
X173785714Y-119126247D01*
X173785714Y-119126247D02*
X173785714Y-119364342D01*
X173785714Y-119364342D02*
X173738095Y-119459580D01*
X173738095Y-119459580D02*
X173690476Y-119507200D01*
X173690476Y-119507200D02*
X173595238Y-119554819D01*
X173595238Y-119554819D02*
X173309524Y-119554819D01*
X173309524Y-119554819D02*
X173214286Y-119507200D01*
X173214286Y-119507200D02*
X173166667Y-119459580D01*
X166734819Y-36786666D02*
X166258628Y-37119999D01*
X166734819Y-37358094D02*
X165734819Y-37358094D01*
X165734819Y-37358094D02*
X165734819Y-36977142D01*
X165734819Y-36977142D02*
X165782438Y-36881904D01*
X165782438Y-36881904D02*
X165830057Y-36834285D01*
X165830057Y-36834285D02*
X165925295Y-36786666D01*
X165925295Y-36786666D02*
X166068152Y-36786666D01*
X166068152Y-36786666D02*
X166163390Y-36834285D01*
X166163390Y-36834285D02*
X166211009Y-36881904D01*
X166211009Y-36881904D02*
X166258628Y-36977142D01*
X166258628Y-36977142D02*
X166258628Y-37358094D01*
X166163390Y-36215237D02*
X166115771Y-36310475D01*
X166115771Y-36310475D02*
X166068152Y-36358094D01*
X166068152Y-36358094D02*
X165972914Y-36405713D01*
X165972914Y-36405713D02*
X165925295Y-36405713D01*
X165925295Y-36405713D02*
X165830057Y-36358094D01*
X165830057Y-36358094D02*
X165782438Y-36310475D01*
X165782438Y-36310475D02*
X165734819Y-36215237D01*
X165734819Y-36215237D02*
X165734819Y-36024761D01*
X165734819Y-36024761D02*
X165782438Y-35929523D01*
X165782438Y-35929523D02*
X165830057Y-35881904D01*
X165830057Y-35881904D02*
X165925295Y-35834285D01*
X165925295Y-35834285D02*
X165972914Y-35834285D01*
X165972914Y-35834285D02*
X166068152Y-35881904D01*
X166068152Y-35881904D02*
X166115771Y-35929523D01*
X166115771Y-35929523D02*
X166163390Y-36024761D01*
X166163390Y-36024761D02*
X166163390Y-36215237D01*
X166163390Y-36215237D02*
X166211009Y-36310475D01*
X166211009Y-36310475D02*
X166258628Y-36358094D01*
X166258628Y-36358094D02*
X166353866Y-36405713D01*
X166353866Y-36405713D02*
X166544342Y-36405713D01*
X166544342Y-36405713D02*
X166639580Y-36358094D01*
X166639580Y-36358094D02*
X166687200Y-36310475D01*
X166687200Y-36310475D02*
X166734819Y-36215237D01*
X166734819Y-36215237D02*
X166734819Y-36024761D01*
X166734819Y-36024761D02*
X166687200Y-35929523D01*
X166687200Y-35929523D02*
X166639580Y-35881904D01*
X166639580Y-35881904D02*
X166544342Y-35834285D01*
X166544342Y-35834285D02*
X166353866Y-35834285D01*
X166353866Y-35834285D02*
X166258628Y-35881904D01*
X166258628Y-35881904D02*
X166211009Y-35929523D01*
X166211009Y-35929523D02*
X166163390Y-36024761D01*
X157833333Y-119554819D02*
X157500000Y-119078628D01*
X157261905Y-119554819D02*
X157261905Y-118554819D01*
X157261905Y-118554819D02*
X157642857Y-118554819D01*
X157642857Y-118554819D02*
X157738095Y-118602438D01*
X157738095Y-118602438D02*
X157785714Y-118650057D01*
X157785714Y-118650057D02*
X157833333Y-118745295D01*
X157833333Y-118745295D02*
X157833333Y-118888152D01*
X157833333Y-118888152D02*
X157785714Y-118983390D01*
X157785714Y-118983390D02*
X157738095Y-119031009D01*
X157738095Y-119031009D02*
X157642857Y-119078628D01*
X157642857Y-119078628D02*
X157261905Y-119078628D01*
X158214286Y-118650057D02*
X158261905Y-118602438D01*
X158261905Y-118602438D02*
X158357143Y-118554819D01*
X158357143Y-118554819D02*
X158595238Y-118554819D01*
X158595238Y-118554819D02*
X158690476Y-118602438D01*
X158690476Y-118602438D02*
X158738095Y-118650057D01*
X158738095Y-118650057D02*
X158785714Y-118745295D01*
X158785714Y-118745295D02*
X158785714Y-118840533D01*
X158785714Y-118840533D02*
X158738095Y-118983390D01*
X158738095Y-118983390D02*
X158166667Y-119554819D01*
X158166667Y-119554819D02*
X158785714Y-119554819D01*
D12*
%TO.C,A1*%
X99520000Y-82460000D02*
X99520000Y-94140000D01*
X99520000Y-94140000D02*
X105870000Y-94140000D01*
X103970000Y-53250000D02*
X103970000Y-62390000D01*
X103970000Y-62390000D02*
X105870000Y-62390000D01*
X105870000Y-50070000D02*
X105870000Y-53250000D01*
X105870000Y-53250000D02*
X103970000Y-53250000D01*
X105870000Y-62390000D02*
X105870000Y-82460000D01*
X105870000Y-82460000D02*
X99520000Y-82460000D01*
X105870000Y-94140000D02*
X105870000Y-103670000D01*
X105870000Y-103670000D02*
X170520000Y-103670000D01*
X170520000Y-103670000D02*
X172170000Y-102020000D01*
X172170000Y-50070000D02*
X105870000Y-50070000D01*
X172170000Y-52740000D02*
X172170000Y-50070000D01*
X172170000Y-90590000D02*
X174710000Y-88050000D01*
X172170000Y-102020000D02*
X172170000Y-90590000D01*
X174710000Y-55280000D02*
X172170000Y-52740000D01*
X174710000Y-88050000D02*
X174710000Y-55280000D01*
%TO.C,R4*%
X183450000Y-119850000D02*
X186500000Y-119850000D01*
X183450000Y-124150000D02*
X186500000Y-124150000D01*
X183450000Y-124150000D02*
G75*
G02*
X183471766Y-119834475I1550000J2150000D01*
G01*
X186500000Y-119850000D02*
G75*
G02*
X186544513Y-124118249I-1500000J-2150000D01*
G01*
%TO.C,M2*%
X120650000Y-115825000D02*
X122000000Y-115825000D01*
X120650000Y-116175000D02*
X120650000Y-115825000D01*
X120650000Y-123075000D02*
X120650000Y-116175000D01*
X120650000Y-123675000D02*
X121650000Y-123675000D01*
X120650000Y-126975000D02*
X120650000Y-123675000D01*
X121650000Y-123075000D02*
X120650000Y-123075000D01*
X121650000Y-123675000D02*
X121650000Y-123075000D01*
X122000000Y-115775000D02*
X124100000Y-115775000D01*
X122000000Y-115825000D02*
X122000000Y-115775000D01*
X124100000Y-115775000D02*
X124100000Y-115825000D01*
X124100000Y-115825000D02*
X125450000Y-115825000D01*
X124450000Y-123075000D02*
X124450000Y-123675000D01*
X124450000Y-123675000D02*
X125450000Y-123675000D01*
X125450000Y-115825000D02*
X125450000Y-116175000D01*
X125450000Y-116175000D02*
X125450000Y-123075000D01*
X125450000Y-123075000D02*
X124450000Y-123075000D01*
X125450000Y-123675000D02*
X125450000Y-126975000D01*
X125450000Y-126975000D02*
X120650000Y-126975000D01*
%TO.C,R1*%
X140150000Y-120850000D02*
X143200000Y-120850000D01*
X140150000Y-125150000D02*
X143200000Y-125150000D01*
X140150000Y-125150000D02*
G75*
G02*
X140171766Y-120834475I1550000J2150000D01*
G01*
X143200000Y-120850000D02*
G75*
G02*
X143244513Y-125118249I-1500000J-2150000D01*
G01*
%TO.C,M1*%
X98450000Y-115800000D02*
X99800000Y-115800000D01*
X98450000Y-116150000D02*
X98450000Y-115800000D01*
X98450000Y-123050000D02*
X98450000Y-116150000D01*
X98450000Y-123650000D02*
X99450000Y-123650000D01*
X98450000Y-126950000D02*
X98450000Y-123650000D01*
X99450000Y-123050000D02*
X98450000Y-123050000D01*
X99450000Y-123650000D02*
X99450000Y-123050000D01*
X99800000Y-115750000D02*
X101900000Y-115750000D01*
X99800000Y-115800000D02*
X99800000Y-115750000D01*
X101900000Y-115750000D02*
X101900000Y-115800000D01*
X101900000Y-115800000D02*
X103250000Y-115800000D01*
X102250000Y-123050000D02*
X102250000Y-123650000D01*
X102250000Y-123650000D02*
X103250000Y-123650000D01*
X103250000Y-115800000D02*
X103250000Y-116150000D01*
X103250000Y-116150000D02*
X103250000Y-123050000D01*
X103250000Y-123050000D02*
X102250000Y-123050000D01*
X103250000Y-123650000D02*
X103250000Y-126950000D01*
X103250000Y-126950000D02*
X98450000Y-126950000D01*
%TO.C,R6*%
X143780000Y-29380000D02*
X143780000Y-38620000D01*
X143780000Y-38620000D02*
X147220000Y-38620000D01*
X145500000Y-27420000D02*
X145500000Y-29380000D01*
X145500000Y-40580000D02*
X145500000Y-38620000D01*
X147220000Y-29380000D02*
X143780000Y-29380000D01*
X147220000Y-38620000D02*
X147220000Y-29380000D01*
%TO.C,R5*%
X131780000Y-31000000D02*
X131780000Y-40240000D01*
X131780000Y-40240000D02*
X135220000Y-40240000D01*
X133500000Y-29040000D02*
X133500000Y-31000000D01*
X133500000Y-42200000D02*
X133500000Y-40240000D01*
X135220000Y-31000000D02*
X131780000Y-31000000D01*
X135220000Y-40240000D02*
X135220000Y-31000000D01*
%TO.C,R7*%
X157780000Y-30500000D02*
X157780000Y-39740000D01*
X157780000Y-39740000D02*
X161220000Y-39740000D01*
X159500000Y-28540000D02*
X159500000Y-30500000D01*
X159500000Y-41700000D02*
X159500000Y-39740000D01*
X161220000Y-30500000D02*
X157780000Y-30500000D01*
X161220000Y-39740000D02*
X161220000Y-30500000D01*
%TO.C,R3*%
X171450000Y-119850000D02*
X174500000Y-119850000D01*
X171450000Y-124150000D02*
X174500000Y-124150000D01*
X171450000Y-124150000D02*
G75*
G02*
X171471766Y-119834475I1550000J2150000D01*
G01*
X174500000Y-119850000D02*
G75*
G02*
X174544513Y-124118249I-1500000J-2150000D01*
G01*
%TO.C,R8*%
X167280000Y-32000000D02*
X167280000Y-41240000D01*
X167280000Y-41240000D02*
X170720000Y-41240000D01*
X169000000Y-30040000D02*
X169000000Y-32000000D01*
X169000000Y-43200000D02*
X169000000Y-41240000D01*
X170720000Y-32000000D02*
X167280000Y-32000000D01*
X170720000Y-41240000D02*
X170720000Y-32000000D01*
%TO.C,R2*%
X156450000Y-119850000D02*
X159500000Y-119850000D01*
X156450000Y-124150000D02*
X159500000Y-124150000D01*
X156450000Y-124150000D02*
G75*
G02*
X156471766Y-119834475I1550000J2150000D01*
G01*
X159500000Y-119850000D02*
G75*
G02*
X159544513Y-124118249I-1500000J-2150000D01*
G01*
%TD*%
M02*
