%TF.GenerationSoftware,KiCad,Pcbnew,8.0.8*%
%TF.CreationDate,2025-10-12T21:50:36+03:00*%
%TF.ProjectId,trackking solar,74726163-6b6b-4696-9e67-20736f6c6172,rev?*%
%TF.SameCoordinates,Original*%
%TF.FileFunction,Copper,L1,Top*%
%TF.FilePolarity,Positive*%
%FSLAX46Y46*%
G04 Gerber Fmt 4.6, Leading zero omitted, Abs format (unit mm)*
G04 Created by KiCad (PCBNEW 8.0.8) date 2025-10-12 21:50:36*
%MOMM*%
%LPD*%
G01*
G04 APERTURE LIST*
%TA.AperFunction,ComponentPad*%
%ADD10R,1.600000X1.600000*%
%TD*%
%TA.AperFunction,ComponentPad*%
%ADD11O,1.600000X1.600000*%
%TD*%
%TA.AperFunction,ComponentPad*%
%ADD12C,1.500000*%
%TD*%
%TA.AperFunction,SMDPad,CuDef*%
%ADD13R,1.100000X1.300000*%
%TD*%
%TA.AperFunction,SMDPad,CuDef*%
%ADD14R,1.000000X0.650000*%
%TD*%
%TA.AperFunction,SMDPad,CuDef*%
%ADD15R,1.000000X1.500000*%
%TD*%
%TA.AperFunction,SMDPad,CuDef*%
%ADD16R,3.400000X4.300000*%
%TD*%
%TA.AperFunction,ComponentPad*%
%ADD17C,1.600000*%
%TD*%
%TA.AperFunction,Conductor*%
%ADD18C,0.200000*%
%TD*%
G04 APERTURE END LIST*
D10*
%TO.P,A1,1,NC*%
%TO.N,unconnected-(A1-NC-Pad1)*%
X133940000Y-52740000D03*
D11*
%TO.P,A1,2,IOREF*%
%TO.N,unconnected-(A1-IOREF-Pad2)*%
X136480000Y-52740000D03*
%TO.P,A1,3,~{RESET}*%
%TO.N,unconnected-(A1-~{RESET}-Pad3)*%
X139020000Y-52740000D03*
%TO.P,A1,4,3V3*%
%TO.N,unconnected-(A1-3V3-Pad4)*%
X141560000Y-52740000D03*
%TO.P,A1,5,+5V*%
%TO.N,unconnected-(A1-+5V-Pad5)*%
X144100000Y-52740000D03*
%TO.P,A1,6,GND*%
%TO.N,unconnected-(A1-GND-Pad6)*%
X146640000Y-52740000D03*
%TO.P,A1,7,GND*%
%TO.N,unconnected-(A1-GND-Pad7)*%
X149180000Y-52740000D03*
%TO.P,A1,8,VIN*%
%TO.N,unconnected-(A1-VIN-Pad8)*%
X151720000Y-52740000D03*
%TO.P,A1,9,A0*%
%TO.N,Net-(A1-A0)*%
X156800000Y-52740000D03*
%TO.P,A1,10,A1*%
%TO.N,Net-(A1-A1)*%
X159340000Y-52740000D03*
%TO.P,A1,11,A2*%
%TO.N,Net-(A1-A2)*%
X161880000Y-52740000D03*
%TO.P,A1,12,A3*%
%TO.N,Net-(A1-A3)*%
X164420000Y-52740000D03*
%TO.P,A1,13,SDA/A4*%
%TO.N,unconnected-(A1-SDA{slash}A4-Pad13)*%
X166960000Y-52740000D03*
%TO.P,A1,14,SCL/A5*%
%TO.N,unconnected-(A1-SCL{slash}A5-Pad14)*%
X169500000Y-52740000D03*
%TO.P,A1,15,D0/RX*%
%TO.N,unconnected-(A1-D0{slash}RX-Pad15)*%
X169500000Y-101000000D03*
%TO.P,A1,16,D1/TX*%
%TO.N,unconnected-(A1-D1{slash}TX-Pad16)*%
X166960000Y-101000000D03*
%TO.P,A1,17,D2*%
%TO.N,unconnected-(A1-D2-Pad17)*%
X164420000Y-101000000D03*
%TO.P,A1,18,D3*%
%TO.N,unconnected-(A1-D3-Pad18)*%
X161880000Y-101000000D03*
%TO.P,A1,19,D4*%
%TO.N,unconnected-(A1-D4-Pad19)*%
X159340000Y-101000000D03*
%TO.P,A1,20,D5*%
%TO.N,unconnected-(A1-D5-Pad20)*%
X156800000Y-101000000D03*
%TO.P,A1,21,D6*%
%TO.N,unconnected-(A1-D6-Pad21)*%
X154260000Y-101000000D03*
%TO.P,A1,22,D7*%
%TO.N,unconnected-(A1-D7-Pad22)*%
X151720000Y-101000000D03*
%TO.P,A1,23,D8*%
%TO.N,unconnected-(A1-D8-Pad23)*%
X147660000Y-101000000D03*
%TO.P,A1,24,D9*%
%TO.N,Net-(A1-D9)*%
X145120000Y-101000000D03*
%TO.P,A1,25,D10*%
%TO.N,Net-(A1-D10)*%
X142580000Y-101000000D03*
%TO.P,A1,26,D11*%
%TO.N,unconnected-(A1-D11-Pad26)*%
X140040000Y-101000000D03*
%TO.P,A1,27,D12*%
%TO.N,unconnected-(A1-D12-Pad27)*%
X137500000Y-101000000D03*
%TO.P,A1,28,D13*%
%TO.N,unconnected-(A1-D13-Pad28)*%
X134960000Y-101000000D03*
%TO.P,A1,29,GND*%
%TO.N,unconnected-(A1-GND-Pad29)*%
X132420000Y-101000000D03*
%TO.P,A1,30,AREF*%
%TO.N,unconnected-(A1-AREF-Pad30)*%
X129880000Y-101000000D03*
%TO.P,A1,31,SDA/A4*%
%TO.N,unconnected-(A1-SDA{slash}A4-Pad31)*%
X127340000Y-101000000D03*
%TO.P,A1,32,SCL/A5*%
%TO.N,unconnected-(A1-SCL{slash}A5-Pad32)*%
X124800000Y-101000000D03*
%TD*%
D12*
%TO.P,R4,1*%
%TO.N,Net-(R1-Pad1)*%
X183300000Y-122000000D03*
%TO.P,R4,2*%
%TO.N,Net-(A1-A3)*%
X186700000Y-122000000D03*
%TD*%
D13*
%TO.P,M2,1,PWM*%
%TO.N,Net-(M1-PWM)*%
X121400000Y-117025000D03*
%TO.P,M2,2,+*%
%TO.N,Net-(A1-D9)*%
X124700000Y-117025000D03*
D14*
%TO.P,M2,SH*%
%TO.N,N/C*%
X122250000Y-122900000D03*
D15*
X123050000Y-117525000D03*
D16*
X123050000Y-120425000D03*
D14*
X123850000Y-122900000D03*
%TD*%
D12*
%TO.P,R1,1*%
%TO.N,Net-(R1-Pad1)*%
X140000000Y-123000000D03*
%TO.P,R1,2*%
%TO.N,Net-(A1-A0)*%
X143400000Y-123000000D03*
%TD*%
D13*
%TO.P,M1,1,PWM*%
%TO.N,Net-(M1-PWM)*%
X99200000Y-117000000D03*
%TO.P,M1,2,+*%
%TO.N,Net-(A1-D10)*%
X102500000Y-117000000D03*
D14*
%TO.P,M1,SH*%
%TO.N,N/C*%
X100050000Y-122875000D03*
D15*
X100850000Y-117500000D03*
D16*
X100850000Y-120400000D03*
D14*
X101650000Y-122875000D03*
%TD*%
D17*
%TO.P,R6,1*%
%TO.N,Net-(A1-A1)*%
X145500000Y-41620000D03*
D11*
%TO.P,R6,2*%
%TO.N,Net-(R5-Pad2)*%
X145500000Y-26380000D03*
%TD*%
D17*
%TO.P,R5,1*%
%TO.N,Net-(A1-A0)*%
X133500000Y-43240000D03*
D11*
%TO.P,R5,2*%
%TO.N,Net-(R5-Pad2)*%
X133500000Y-28000000D03*
%TD*%
D17*
%TO.P,R7,1*%
%TO.N,Net-(A1-A2)*%
X159500000Y-42740000D03*
D11*
%TO.P,R7,2*%
%TO.N,Net-(R5-Pad2)*%
X159500000Y-27500000D03*
%TD*%
D12*
%TO.P,R3,1*%
%TO.N,Net-(R1-Pad1)*%
X171300000Y-122000000D03*
%TO.P,R3,2*%
%TO.N,Net-(A1-A2)*%
X174700000Y-122000000D03*
%TD*%
D17*
%TO.P,R8,1*%
%TO.N,Net-(A1-A3)*%
X169000000Y-44240000D03*
D11*
%TO.P,R8,2*%
%TO.N,Net-(R5-Pad2)*%
X169000000Y-29000000D03*
%TD*%
D12*
%TO.P,R2,1*%
%TO.N,Net-(R1-Pad1)*%
X156300000Y-122000000D03*
%TO.P,R2,2*%
%TO.N,Net-(A1-A1)*%
X159700000Y-122000000D03*
%TD*%
D18*
%TO.N,Net-(A1-A3)*%
X169000000Y-48160000D02*
X169000000Y-44240000D01*
X164420000Y-52740000D02*
X186700000Y-75020000D01*
X186700000Y-75020000D02*
X186700000Y-122000000D01*
X164420000Y-52740000D02*
X169000000Y-48160000D01*
%TO.N,Net-(A1-A0)*%
X147300000Y-43240000D02*
X156800000Y-52740000D01*
X150620000Y-58920000D02*
X150620000Y-115780000D01*
X156800000Y-52740000D02*
X150620000Y-58920000D01*
X133500000Y-43240000D02*
X147300000Y-43240000D01*
X150620000Y-115780000D02*
X143400000Y-123000000D01*
%TO.N,Net-(A1-A2)*%
X161880000Y-52740000D02*
X161880000Y-45120000D01*
X161880000Y-66380000D02*
X179500000Y-84000000D01*
X179500000Y-84000000D02*
X179500000Y-117200000D01*
X179500000Y-117200000D02*
X174700000Y-122000000D01*
X161880000Y-45120000D02*
X159500000Y-42740000D01*
X161880000Y-52740000D02*
X161880000Y-66380000D01*
%TO.N,Net-(A1-D10)*%
X107000000Y-117000000D02*
X102500000Y-117000000D01*
X111000000Y-113000000D02*
X107000000Y-117000000D01*
X130580000Y-113000000D02*
X111000000Y-113000000D01*
X142580000Y-101000000D02*
X130580000Y-113000000D01*
%TO.N,Net-(A1-A1)*%
X159340000Y-52740000D02*
X148220000Y-41620000D01*
X160500000Y-53900000D02*
X160500000Y-121200000D01*
X159340000Y-52740000D02*
X160500000Y-53900000D01*
X148220000Y-41620000D02*
X145500000Y-41620000D01*
X160500000Y-121200000D02*
X159700000Y-122000000D01*
%TO.N,Net-(A1-D9)*%
X129095000Y-117025000D02*
X145120000Y-101000000D01*
X124700000Y-117025000D02*
X129095000Y-117025000D01*
%TO.N,Net-(M1-PWM)*%
X121400000Y-117100000D02*
X108000000Y-130500000D01*
X95000000Y-126500000D02*
X95000000Y-121200000D01*
X121400000Y-117025000D02*
X121400000Y-117100000D01*
X108000000Y-130500000D02*
X99000000Y-130500000D01*
X95000000Y-121200000D02*
X99200000Y-117000000D01*
X99000000Y-130500000D02*
X95000000Y-126500000D01*
%TO.N,Net-(R1-Pad1)*%
X171300000Y-122000000D02*
X167300000Y-126000000D01*
X175300000Y-126000000D02*
X171300000Y-122000000D01*
X145000000Y-128000000D02*
X140000000Y-123000000D01*
X183300000Y-122000000D02*
X179300000Y-126000000D01*
X160300000Y-126000000D02*
X156300000Y-122000000D01*
X167300000Y-126000000D02*
X160300000Y-126000000D01*
X156300000Y-122000000D02*
X150300000Y-128000000D01*
X150300000Y-128000000D02*
X145000000Y-128000000D01*
X179300000Y-126000000D02*
X175300000Y-126000000D01*
%TO.N,Net-(R5-Pad2)*%
X134000000Y-28000000D02*
X135620000Y-26380000D01*
X135620000Y-26380000D02*
X145500000Y-26380000D01*
X161000000Y-29000000D02*
X159500000Y-27500000D01*
X145500000Y-26380000D02*
X158380000Y-26380000D01*
X169000000Y-29000000D02*
X161000000Y-29000000D01*
X133500000Y-28000000D02*
X134000000Y-28000000D01*
X158380000Y-26380000D02*
X159500000Y-27500000D01*
%TD*%
M02*
